<?xml version="1.0" encoding="utf-8"?>
<!-- Generator: Adobe Illustrator 21.1.0, SVG Export Plug-In . SVG Version: 6.00 Build 0)  -->
<svg version="1.1" id="Layer_1" xmlns="http://www.w3.org/2000/svg" xmlns:xlink="http://www.w3.org/1999/xlink" x="0px" y="0px"
	 viewBox="0 0 305 153" style="enable-background:new 0 0 305 153;" xml:space="preserve">
<style type="text/css">
	.st0{clip-path:url(#SVGID_2_);}
	.st1{fill:#FFFFFF;fill-opacity:0;}
	.st2{clip-path:url(#SVGID_4_);}
	.st3{fill:#86573A;}
</style>
<g>
	<defs>
		<rect id="SVGID_1_" y="0.2" width="305" height="152.5"/>
	</defs>
	<clipPath id="SVGID_2_">
		<use xlink:href="#SVGID_1_"  style="overflow:visible;"/>
	</clipPath>
	<g class="st0">
		<path class="st1" d="M0,0.2h305v152.5H0V0.2z"/>
		<g>
			<defs>
				<rect id="SVGID_3_" y="0.2" width="305" height="152.5"/>
			</defs>
			<clipPath id="SVGID_4_">
				<use xlink:href="#SVGID_3_"  style="overflow:visible;"/>
			</clipPath>
			<g class="st2">
				<path class="st3" d="M208.4,146.2c0.8,3.9-1.3,4.8-4.8,4.4c-2.2-0.1-4.4-0.1-6.6,0l8.2-14.1c0.5-1,0.8-2.1,0.8-3.3
					c0-8.2,0.4-16.4-0.1-24.6c-0.3-6.4-1.8-12.7-7.2-17c-1.1-0.9-4-1.5-4.7-0.8c-5.1,4.8-9.2,1-13.6-0.9c-2.4-1.2-5-2.1-7.6-2.9
					c-0.9-0.3-3.1,0.7-3.1,1.2c-0.1,3.1,0.2,6.2,0.3,9.4c0.1,2,0,3.9,0,5.9c0,1.1-0.5,2.8-0.1,3.1c3.7,2.5,1.9,5.9,2.2,9
					c-5.3,0.9-10.5-3-10.5-7.8V85.1c0.2-4.4,3.8-7.9,8.2-8.2H184l-1.7-7.1c-1-4.7,2.9-7.3,4.8-10.7c3.2-5.5,5.2-11.5,6.1-17.7
					c0.1-0.8,0.3-1.5,0.5-2.3c-4.1-1.3-8.6-0.9-12.5,1.1c-1.2,0.6-4.5,0-4.8-0.8c-0.8-2.4-1.1-4.9-0.7-7.4c0.2-1.5,2.1-2.7,3.2-4
					l6-7.9c0.3-0.4,0.4-0.9,0.4-1.3c-2.3-6.1,3.8-9.1,4.4-14.5c3.6,3.7,12.5,4.4,14,1.1c1.9,2.2,3.6,4.6,7.1,3.6
					c1.8-0.4,3.6-0.7,5.5-0.7c0.9,0.1,1.8,0.4,2.7,0.8l-4.5,1.8l14.5,5.5v1.3l-4.3,1.1l4.8,2.5l-2,0.5l3.8,1.5l-4.7,1.5l11.1,4
					l-0.3,0.8l-6.3,1.5l0.1,0.9l5.5,0.6l-7.1,3.2l6.1,3.7l-1.8,1.6l1.9,1.3l-0.4,3l-2.7,1.2l6,5.2l-4.6,2.1l1.7,2.4l-3.9,1.5
					c1.8,4.2,4.9,1.9,7,1.6c7.5-1,14.4-0.3,20.7,4.4c2.3,1.7,4.7,2.8,7.9,1c3.6-1.8,7.5-3.1,11.5-3.7l-3.1,3.3l11.4,1.5v0.6L281,68
					l11,8.6l-4.7-0.3l-1.1,1.2l8.3,7.4l-7-2.8l13.2,23l-4.3-4c-1.1,2.3-1.1,2.3,4.2,10.3l-6.8-7.6l-1.3,0.7
					c2.5,5.3-0.6,12.2,5.9,16.6l-0.9,0.7l-5.7-2.4l-0.6,0.5l6.7,10.9c-5.3-0.4-6.8-5.9-11.1-8l2.6,7c-7.3-4-9.5-9.7-9-16.8
					c0.3-5.4-2.8-9.5-6.2-13c-4-4.2-5.6-8.3-3.1-14c2.3-5.2,0.6-11.2-4-14.5c1.5,5.9,1.5,12.1,0.1,18c-1.1,4.8-0.3,9.9,4.2,13.2
					c4.5,3.3,5.6,7.7,5.8,13.3c0.1,4.4,2.7,8.8,4.6,12.9c0.4,0.9,2.8,1,4.5,1.5c-0.8,2.1-3.3,4.3,0.8,5.1c0.3,0,0.5,1,0.5,1.6v11
					c-3.9,1.5-5.2-1.3-6.1-3.4c-1.7-4.2-5-7.7-9.1-9.5l-2-14.9c-0.2-1.2-0.6-2.2-1.4-3.1l-20-20.2c-4.2,3.3-7.6,6.7-6.6,12.4
					c1.3,7.6-1.2,13.5-6.7,18.8c-2.9,2.9-4.4,7.3-6.5,11.1c-0.5,0.9-0.9,2-1.7,2.5c-2.5,1.2-3.9,4.1-3.2,6.8h-12
					c1-2.3,1.2-4.9,2.6-5.8c5.2-3.4,7.5-9.1,11.2-13.6c2.2-2.7,3.1-6.3,4.8-9.4s1.1-5.5,0.1-8.5c-1.3-4.3-1.6-9-2.5-14
					c-2.8,0-6.1-0.4-9.2,0.2c-1.2,0.3-2.7,2.8-2.9,4.4c-0.8,6.4-0.2,13.1-1.8,19.2c-1.3,4.9-1.9,9.9-1.9,15c0,0.7,0,1.4,0.1,2.1
					C213.8,143.1,212.9,144.6,208.4,146.2L208.4,146.2z M76.2,57.4l-4-1.4l1.5-2.4l-4.6-2.1l5.9-5.1l-3.1-1.6l1.1-1.3l-1.5-0.9
					l2.6-1.7l-1.8-1.8l6-3.6l-6.7-3.2l5.3-0.6l0.2-0.9l-6.3-1.4l-0.3-0.8l11-4l-4.7-1.6l3.6-1.4L78.5,21l4.6-2.4l-5.9-1.4l15.8-6.6
					l-3.6-1.5l-0.1-0.7c2-0.1,4.1-0.7,6-0.2c3.3,0.9,6,1.3,7.9-2.2c0.1-0.2,0.6-0.3,1-0.4c1.3,2.9,10.4,2.2,13.7-1.7
					c0.7,5.3,5.9,8.2,4.9,14.2c-0.4,2.2,2.1,5.1,3.6,7.3c1.2,1.6,2.7,3,4.2,4.2c2.8,2.4,2.3,5.5,1.8,8.4c-0.4,2.4-3.3,3.3-5.8,2.2
					c-5.8-2.4-6.1-2.4-12.5-1.4c0.7,9,4,17.7,9.5,24.9c2.5,3.4,2.1,6.6,1,10.1c-0.3,0.8-0.5,1.7-0.8,3.1h13.7c4.8,0,8.7,3.8,8.7,8.5
					c0,0.1,0,0.1,0,0.2c0.1,4.9,0.6,9.8,0.6,14.7c0,3.5-0.3,7-0.8,10.4c-0.3,2.3-6.9,5.3-10.4,4.9c0.2-3.1-1.5-6.5,2-9
					c0.5-0.4,0.1-2,0.1-3.1c0-2-0.2-3.9-0.2-5.9c0.1-3.1,0.6-6.2,0.5-9.2c0-0.4-2.8-1.4-3.9-1c-4.7,1.8-9,4.3-13.7,5.9
					c-1.4,0.5-3.6-0.8-5.3-1.7c-3.2-1.8-5.1-1.4-7.2,1.6c-0.7,1-1.9,1.8-2.5,2.9c-1,1.6-1.7,3.3-2.2,5.1c-2.7,10.4-1.2,21-1.4,31.5
					c0,1.6,1.1,3.3,1.9,4.9c1.2,2.4,2.6,4.6,3.7,6.9c0.7,1.5,1.3,3.2,2,5.2c-3.1,2.1-6.7,0.3-10.2,1v-4.3c-4.9-2.5-4.7-3-4.5-8.8
					c0.2-5.2,1.3-10.7-1.8-15.7c-0.3-0.4-0.1-1.1-0.2-1.7c-0.5-6.4-0.8-12.9-1.7-19.2c-0.6-1.7-1.9-3.1-3.7-3.6
					c-2.7-0.6-5.6-0.2-8.3-0.2l-2,11.9c-0.3,1.5-1.4,3.1-1.2,4.5c0.5,3.5,0.8,7.2,2.5,10.2c3.2,5.5,6.8,10.8,10.6,15.9
					c0.7,0.8,1.5,1.5,2.5,1.8c3,1.3,3.3,3.8,3.3,6.7H83.8c0.3-3.2-1.2-5.3-3.8-7.1c-1.2-1-2.1-2.4-2.4-4c-1.3-5.8-5.1-10-9.4-13.8
					c-2-1.5-3-3.9-2.8-6.3c0.2-2.4-0.3-4.9,0.1-7.3c0.9-5.8-2.3-9.4-6.7-12.7l-8.4,8.3c-3.5,3.4-7.1,6.7-10.3,10.3
					c-1.5,1.9-2.4,4.1-2.9,6.4c-0.8,4-1.1,8.1-1.6,12.2c-0.1,0.4-0.3,0.8-0.7,1c-5.1,2.1-7.5,6.7-10,11.1c-0.7,1.2-2.7,1.8-4.8,3.1
					V137c0-0.6,0.2-1.1,0.5-1.6c2.3-2.3,2.3-2.3,0.9-4.7c0.3-0.3,0.6-0.9,0.9-0.9c4,0.1,4.1-3.1,5.6-5.6c2.8-4.7,2.6-9.6,2.8-14.7
					c0.1-1.5,1.6-3.3,2.9-4.4c4.6-3.9,7.6-8.4,7-14.7c-0.2-2.5-1.4-4.9-1.5-7.4c0-3.8,0.5-7.7,0.8-11.3c-4.3,3.2-5.8,9.1-3.4,15
					C39,91.8,38.2,95,34.4,99c-4.5,4.6-7.6,9.7-7.1,16.6c0.3,4.8-1.3,9.4-5.9,12c-0.7,0.5-1.3,1.2-1.8,1.9l-0.9-0.4l2.4-6.4
					c-4.3,2-5.6,7.8-11.1,8.1l6.9-11l-0.4-0.6l-6.3,2.7c1.5-3.1,3.3-5.7,4-8.5c0.7-2.8,0.4-5.9,0.6-9.7l-7.2,7.9
					c0.6-4,4.7-6.1,4.8-11.2l-5,4.4l12.6-21.9l-0.5-0.5l-5.4,2.4L13.3,84l8.4-6.6l-1.1-1.3l-5.2,0.7l11.3-8.6l-6.3-1.7v-0.7
					l11.2-1.5l-3.5-4.4c4.7,1.7,8.7,2.7,12,4.6s5.9,0.6,8.4-1.2c6.2-4.5,12.9-5.1,20.2-4.1C71,59.3,73.9,61.4,76.2,57.4z"/>
			</g>
		</g>
	</g>
</g>
</svg>
